<svg width="146" height="146" viewBox="0 0 146 146" fill="none" xmlns="http://www.w3.org/2000/svg">
<circle cx="73" cy="73" r="73" fill="#85FF6A"/>
<path d="M76 56.5429C70.1761 56.5429 64.7016 58.0533 59.9476 60.6921V32.4045C59.9476 27.7637 56.1529 24 51.4738 24C46.7947 24 43 27.7637 43 32.4045V89.2697C43 107.317 57.8042 122 76 122C94.1958 122 109 107.317 109 89.2697C109 71.2225 94.1958 56.5393 76 56.5393V56.5429ZM76 105.191C67.1482 105.191 59.9476 98.0492 59.9476 89.2697C59.9476 80.4902 67.1482 73.3484 76 73.3484C84.8518 73.3484 92.0524 80.4902 92.0524 89.2697C92.0524 98.0492 84.8518 105.191 76 105.191Z" fill="white"/>
</svg>
